#!OML:ASF I:\Actors\actors\Patient Classification 1\Patient 1\Session 1\Subject1.ASF
:FULLY-SPECIFIED
:DEGREES
207
root -0.566573 17.6453 8.17439 4.1796 -20.3526 -4.48661
lowerback -2.61609 -1.71461 4.20973
upperback -12.4076 -1.96732 3.63267
thorax -11.8902 -1.21548 1.76129
lowerneck -5.95851 1.60147 3.53952
upperneck 27.2724 -2.09489 13.1578
head 9.77546 0.681887 3.80956
rclavicle 5.725e-014 4.77083e-015
rhumerus 59.443 56.6775 -28.9672
rradius 123.571
rwrist -21.3872
rhand -9.65939 -54.2437
rfingers 7.12502
rthumb 16.3116 -83.5777
lclavicle 5.725e-014 4.77083e-015
lhumerus 44.7548 16.2305 70.6185
lradius 77.6976
lwrist 76.5577
lhand -7.80129 3.58673
lfingers 7.12502
lthumb 18.1 32.7646
rfemur -0.293791 23.9453 21.8224
rtibia 5.32284
rfoot -13.2688 -5.17982
rtoes -11.0466
lfemur 14.0125 -24.8324 -22.0786
ltibia -1.71392
lfoot -23.851 46.2189
ltoes 11.352
208
root -0.567904 17.6281 8.2298 3.8368 -20.8724 -4.46855
lowerback -2.31609 -1.63631 4.63934
upperback -13.0868 -1.78474 3.85388
thorax -12.9062 -1.16816 1.81179
lowerneck -5.81805 1.44554 3.39248
upperneck 28.4941 -2.42698 12.9746
head 10.2168 0.544233 3.79151
rclavicle 8.62725e-014 6.20208e-014
rhumerus 58.3538 58.1883 -29.735
rradius 123.874
rwrist -20.9585
rhand -10.21 -54.2363
rfingers 7.12502
rthumb 15.7814 -83.613
lclavicle 8.62725e-014 6.20208e-014
lhumerus 44.961 16.6935 70.4673
lradius 78.1902
lwrist 76.5114
lhand -7.8578 4.38844
lfingers 7.12502
lthumb 18.0457 33.5713
rfemur 0.264917 23.7785 21.9055
rtibia 5.26974
rfoot -13.3924 -4.46204
rtoes -11.0711
lfemur 14.6183 -24.2823 -22.4114
ltibia -1.55697
lfoot -24.3485 46.0352
ltoes 11.4162
209
root -0.56603 17.6096 8.27288 3.45565 -21.2113 -4.5601
lowerback -2.27552 -1.60447 5.05629
upperback -13.3339 -1.68779 4.11402
thorax -13.2483 -1.15346 1.88008
lowerneck -5.75772 1.35287 3.46984
upperneck 29.1052 -2.59591 12.7139
head 10.4421 0.471903 3.69361
rclavicle -2.94201e-014 4.05521e-014
rhumerus 57.6517 58.951 -30.2812
rradius 123.993
rwrist -20.2408
rhand -10.5497 -54.1306
rfingers 7.12502
rthumb 15.4542 -83.5328
lclavicle -2.94201e-014 4.05521e-014
lhumerus 45.4883 17.0939 70.2049
lradius 78.2446
lwrist 76.0423
lhand -6.50218 2.85188
lfingers 7.12502
lthumb 19.3496 31.9092
rfemur 0.797572 23.4703 22.1103
rtibia 5.34092
rfoot -13.5194 -3.77505
rtoes -11.4708
lfemur 15.3021 -23.9661 -22.7177
ltibia -1.50984
lfoot -24.8396 46.1382
ltoes 11.643
210
root -0.561358 17.5926 8.30439 3.10298 -21.3101 -4.71986
lowerback -2.34278 -1.63414 5.44642
upperback -13.3422 -1.68978 4.3772
thorax -13.2328 -1.17928 1.95387
lowerneck -5.89603 1.34432 3.60947
upperneck 29.3341 -2.63976 12.5652
head 10.5587 0.466924 3.62273
rclavicle -1.19271e-015 -1.90833e-014
rhumerus 57.2502 59.1705 -30.6275
rradius 123.908
rwrist -19.4229
rhand -10.7374 -53.6643
rfingers 7.12502
rthumb 15.2734 -83.0803
lclavicle -1.19271e-015 -1.90833e-014
lhumerus 45.9357 17.3532 69.7005
lradius 78.1173
lwrist 75.232
lhand -7.02483 4.02983
lfingers 7.12502
lthumb 18.8469 33.1368
rfemur 1.28032 23.1197 22.376
rtibia 5.47035
rfoot -13.6818 -3.26106
rtoes -11.5274
lfemur 15.8741 -23.7575 -22.8983
ltibia -1.45374
lfoot -25.5251 46.2359
ltoes 12.3718
211
root -0.555664 17.5787 8.327 2.79039 -21.2371 -4.84216
lowerback -2.34413 -1.71355 5.7445
upperback -13.2999 -1.76061 4.62727
thorax -13.1933 -1.22742 2.06974
lowerneck -6.15569 1.36507 3.71681
upperneck 29.4451 -2.65989 12.5308
head 10.6557 0.481127 3.59827
rclavicle -2.3059e-014 6.44062e-014
rhumerus 56.6564 59.0795 -31.2952
rradius 123.662
rwrist -19.8207
rhand -10.838 -53.9324
rfingers 7.12502
rthumb 15.1765 -83.3558
lclavicle -2.3059e-014 6.44062e-014
lhumerus 46.0421 17.4963 69.0869
lradius 77.9468
lwrist 74.2729
lhand -6.87744 3.85718
lfingers 7.12502
lthumb 18.9887 32.9503
rfemur 1.66748 22.8052 22.5833
rtibia 5.66719
rfoot -13.9053 -2.91767
rtoes -11.1537
lfemur 16.2877 -23.627 -23.0571
ltibia -1.42138
lfoot -25.6789 46.5337
ltoes 12.3189
212
root -0.553373 17.5713 8.34122 2.51726 -21.0591 -4.89303
lowerback -2.34303 -1.823 5.87001
upperback -13.2562 -1.88215 4.85716
thorax -13.1446 -1.28188 2.26246
lowerneck -6.44287 1.35487 3.70135
upperneck 29.5851 -2.71696 12.5211
head 10.7709 0.46939 3.60215
rclavicle -9.30312e-014 -2.70347e-014
rhumerus 56.1954 59.0473 -31.7957
rradius 123.493
rwrist -20.4006
rhand -10.8431 -53.9176
rfingers 7.12502
rthumb 15.1717 -83.3415
lclavicle -9.30312e-014 -2.70347e-014
lhumerus 45.8448 17.5311 68.5457
lradius 77.7417
lwrist 73.3735
lhand -6.58963 3.45811
lfingers 7.12502
lthumb 19.2655 32.5238
rfemur 1.93666 22.6478 22.7279
rtibia 5.95305
rfoot -14.1894 -2.82544
rtoes -10.6683
lfemur 16.5417 -23.5653 -23.206
ltibia -1.41552
lfoot -25.3061 46.9662
ltoes 11.5648
213
root -0.554385 17.5698 8.34714 2.30598 -20.7447 -4.81864
lowerback -2.41406 -1.94886 5.78632
upperback -13.2199 -2.05065 4.99312
thorax -13.0491 -1.34279 2.46624
lowerneck -6.50994 1.20803 3.98548
upperneck 29.5061 -2.90139 12.2456
head 10.7622 0.383803 3.42724
rclavicle -6.67916e-014 5.40694e-014
rhumerus 55.8578 58.9924 -32.146
rradius 123.357
rwrist -20.8483
rhand -10.8166 -53.8922
rfingers 7.12502
rthumb 15.1972 -83.3141
lclavicle -6.67916e-014 5.40694e-014
lhumerus 45.5856 17.422 68.2039
lradius 77.4849
lwrist 72.841
lhand -6.28111 3.27787
lfingers 7.12502
lthumb 19.5621 32.3137
rfemur 2.11601 22.5875 22.7323
rtibia 6.1675
rfoot -14.412 -3.00746
rtoes -10.2669
lfemur 16.5992 -23.5383 -23.3321
ltibia -1.35261
lfoot -25.0958 47.0761
ltoes 11.1989
